<svg width="502" height="309" viewBox="0 0 502 309" fill="none" xmlns="http://www.w3.org/2000/svg">
<path d="M50.8494 140V38.1818H72.3764V122.251H116.027V140H50.8494ZM130.283 140V38.1818H198.891V55.9304H151.81V80.1918H195.361V97.9403H151.81V122.251H199.09V140H130.283ZM212.128 55.9304V38.1818H295.75V55.9304H264.578V140H243.3V55.9304H212.128ZM326.872 38.1818V48.9205C326.872 51.9697 326.276 55.0852 325.082 58.267C323.922 61.4157 322.365 64.3987 320.409 67.2159C318.454 70 316.316 72.3698 313.996 74.3253L304.649 68.8068C306.306 66.1884 307.765 63.2883 309.024 60.1065C310.317 56.9247 310.963 53.2292 310.963 49.0199V38.1818H326.872ZM396.611 67.4645C396.213 63.4541 394.507 60.3385 391.49 58.1179C388.474 55.8972 384.381 54.7869 379.211 54.7869C375.697 54.7869 372.731 55.2841 370.311 56.2784C367.892 57.2396 366.036 58.5819 364.743 60.3054C363.484 62.0289 362.854 63.9844 362.854 66.1719C362.788 67.9948 363.169 69.5857 363.998 70.9446C364.859 72.3035 366.036 73.4801 367.527 74.4744C369.019 75.4356 370.742 76.2808 372.698 77.0099C374.653 77.706 376.741 78.3026 378.962 78.7997L388.11 80.9872C392.551 81.9815 396.628 83.3073 400.34 84.9645C404.052 86.6217 407.267 88.66 409.985 91.0795C412.703 93.4991 414.807 96.3494 416.299 99.6307C417.823 102.912 418.602 106.674 418.635 110.916C418.602 117.147 417.011 122.55 413.863 127.124C410.747 131.664 406.239 135.194 400.34 137.713C394.473 140.199 387.397 141.442 379.111 141.442C370.891 141.442 363.732 140.182 357.634 137.663C351.569 135.144 346.829 131.416 343.415 126.477C340.034 121.506 338.261 115.357 338.096 108.033H358.926C359.158 111.446 360.136 114.297 361.86 116.584C363.616 118.838 365.953 120.545 368.87 121.705C371.819 122.831 375.15 123.395 378.863 123.395C382.508 123.395 385.674 122.865 388.358 121.804C391.076 120.743 393.181 119.268 394.672 117.379C396.164 115.49 396.909 113.319 396.909 110.866C396.909 108.58 396.23 106.657 394.871 105.099C393.545 103.542 391.59 102.216 389.005 101.122C386.453 100.028 383.32 99.0341 379.608 98.1392L368.522 95.3551C359.937 93.267 353.159 90.0024 348.188 85.5611C343.216 81.1198 340.747 75.1373 340.78 67.6136C340.747 61.4489 342.388 56.063 345.702 51.456C349.05 46.849 353.64 43.2528 359.473 40.6676C365.307 38.0824 371.935 36.7898 379.36 36.7898C386.917 36.7898 393.512 38.0824 399.147 40.6676C404.814 43.2528 409.222 46.849 412.371 51.456C415.52 56.063 417.144 61.3991 417.243 67.4645H396.611ZM69.2443 178.182L93.8537 255.54H94.7983L119.457 178.182H143.321L108.222 280H80.4801L45.331 178.182H69.2443ZM243.399 229.091C243.399 240.194 241.295 249.64 237.085 257.429C232.909 265.218 227.208 271.167 219.983 275.277C212.791 279.354 204.704 281.392 195.722 281.392C186.673 281.392 178.553 279.337 171.361 275.227C164.169 271.117 158.484 265.168 154.308 257.379C150.132 249.59 148.044 240.161 148.044 229.091C148.044 217.988 150.132 208.542 154.308 200.753C158.484 192.964 164.169 187.031 171.361 182.955C178.553 178.845 186.673 176.79 195.722 176.79C204.704 176.79 212.791 178.845 219.983 182.955C227.208 187.031 232.909 192.964 237.085 200.753C241.295 208.542 243.399 217.988 243.399 229.091ZM221.574 229.091C221.574 221.899 220.497 215.833 218.342 210.895C216.221 205.956 213.222 202.211 209.344 199.659C205.466 197.107 200.925 195.831 195.722 195.831C190.518 195.831 185.977 197.107 182.099 199.659C178.222 202.211 175.205 205.956 173.051 210.895C170.93 215.833 169.869 221.899 169.869 229.091C169.869 236.283 170.93 242.348 173.051 247.287C175.205 252.225 178.222 255.971 182.099 258.523C185.977 261.075 190.518 262.351 195.722 262.351C200.925 262.351 205.466 261.075 209.344 258.523C213.222 255.971 216.221 252.225 218.342 247.287C220.497 242.348 221.574 236.283 221.574 229.091ZM250.819 195.93V178.182H334.441V195.93H303.27V280H281.991V195.93H250.819ZM348.213 280V178.182H416.821V195.93H369.74V220.192H413.291V237.94H369.74V262.251H417.02V280H348.213ZM458.843 178.182L456.904 249.474H438.708L436.719 178.182H458.843ZM447.806 281.293C444.525 281.293 441.708 280.133 439.354 277.812C437.001 275.459 435.841 272.642 435.874 269.361C435.841 266.113 437.001 263.329 439.354 261.009C441.708 258.688 444.525 257.528 447.806 257.528C450.955 257.528 453.722 258.688 456.109 261.009C458.495 263.329 459.705 266.113 459.738 269.361C459.705 271.548 459.125 273.554 457.998 275.376C456.904 277.166 455.462 278.608 453.673 279.702C451.883 280.762 449.927 281.293 447.806 281.293Z" fill="#FF0000"/>
<path d="M39.8494 131V29.1818H61.3764V113.251H105.027V131H39.8494ZM119.283 131V29.1818H187.891V46.9304H140.81V71.1918H184.361V88.9403H140.81V113.251H188.09V131H119.283ZM201.128 46.9304V29.1818H284.75V46.9304H253.578V131H232.3V46.9304H201.128ZM315.872 29.1818V39.9205C315.872 42.9697 315.276 46.0852 314.082 49.267C312.922 52.4157 311.365 55.3987 309.409 58.2159C307.454 61 305.316 63.3698 302.996 65.3253L293.649 59.8068C295.306 57.1884 296.765 54.2883 298.024 51.1065C299.317 47.9247 299.963 44.2292 299.963 40.0199V29.1818H315.872ZM385.611 58.4645C385.213 54.4541 383.507 51.3385 380.49 49.1179C377.474 46.8972 373.381 45.7869 368.211 45.7869C364.697 45.7869 361.731 46.2841 359.311 47.2784C356.892 48.2396 355.036 49.5819 353.743 51.3054C352.484 53.0289 351.854 54.9844 351.854 57.1719C351.788 58.9948 352.169 60.5857 352.998 61.9446C353.859 63.3035 355.036 64.4801 356.527 65.4744C358.019 66.4356 359.742 67.2808 361.698 68.0099C363.653 68.706 365.741 69.3026 367.962 69.7997L377.11 71.9872C381.551 72.9815 385.628 74.3073 389.34 75.9645C393.052 77.6217 396.267 79.66 398.985 82.0795C401.703 84.4991 403.807 87.3494 405.299 90.6307C406.823 93.9119 407.602 97.6738 407.635 101.916C407.602 108.147 406.011 113.55 402.863 118.124C399.747 122.664 395.239 126.194 389.34 128.713C383.473 131.199 376.397 132.442 368.111 132.442C359.891 132.442 352.732 131.182 346.634 128.663C340.569 126.144 335.829 122.416 332.415 117.477C329.034 112.506 327.261 106.357 327.096 99.0327H347.926C348.158 102.446 349.136 105.297 350.86 107.584C352.616 109.838 354.953 111.545 357.87 112.705C360.819 113.831 364.15 114.395 367.863 114.395C371.508 114.395 374.674 113.865 377.358 112.804C380.076 111.743 382.181 110.268 383.672 108.379C385.164 106.49 385.909 104.319 385.909 101.866C385.909 99.5795 385.23 97.6572 383.871 96.0994C382.545 94.5417 380.59 93.2159 378.005 92.1222C375.453 91.0284 372.32 90.0341 368.608 89.1392L357.522 86.3551C348.937 84.267 342.159 81.0024 337.188 76.5611C332.216 72.1198 329.747 66.1373 329.78 58.6136C329.747 52.4489 331.388 47.063 334.702 42.456C338.05 37.849 342.64 34.2528 348.473 31.6676C354.307 29.0824 360.935 27.7898 368.36 27.7898C375.917 27.7898 382.512 29.0824 388.147 31.6676C393.814 34.2528 398.222 37.849 401.371 42.456C404.52 47.063 406.144 52.3991 406.243 58.4645H385.611ZM58.2443 169.182L82.8537 246.54H83.7983L108.457 169.182H132.321L97.2216 271H69.4801L34.331 169.182H58.2443ZM232.399 220.091C232.399 231.194 230.295 240.64 226.085 248.429C221.909 256.218 216.208 262.167 208.983 266.277C201.791 270.354 193.704 272.392 184.722 272.392C175.673 272.392 167.553 270.337 160.361 266.227C153.169 262.117 147.484 256.168 143.308 248.379C139.132 240.59 137.044 231.161 137.044 220.091C137.044 208.988 139.132 199.542 143.308 191.753C147.484 183.964 153.169 178.031 160.361 173.955C167.553 169.845 175.673 167.79 184.722 167.79C193.704 167.79 201.791 169.845 208.983 173.955C216.208 178.031 221.909 183.964 226.085 191.753C230.295 199.542 232.399 208.988 232.399 220.091ZM210.574 220.091C210.574 212.899 209.497 206.833 207.342 201.895C205.221 196.956 202.222 193.211 198.344 190.659C194.466 188.107 189.925 186.831 184.722 186.831C179.518 186.831 174.977 188.107 171.099 190.659C167.222 193.211 164.205 196.956 162.051 201.895C159.93 206.833 158.869 212.899 158.869 220.091C158.869 227.283 159.93 233.348 162.051 238.287C164.205 243.225 167.222 246.971 171.099 249.523C174.977 252.075 179.518 253.351 184.722 253.351C189.925 253.351 194.466 252.075 198.344 249.523C202.222 246.971 205.221 243.225 207.342 238.287C209.497 233.348 210.574 227.283 210.574 220.091ZM239.819 186.93V169.182H323.441V186.93H292.27V271H270.991V186.93H239.819ZM337.213 271V169.182H405.821V186.93H358.74V211.192H402.291V228.94H358.74V253.251H406.02V271H337.213ZM447.843 169.182L445.904 240.474H427.708L425.719 169.182H447.843ZM436.806 272.293C433.525 272.293 430.708 271.133 428.354 268.812C426.001 266.459 424.841 263.642 424.874 260.361C424.841 257.113 426.001 254.329 428.354 252.009C430.708 249.688 433.525 248.528 436.806 248.528C439.955 248.528 442.722 249.688 445.109 252.009C447.495 254.329 448.705 257.113 448.738 260.361C448.705 262.548 448.125 264.554 446.998 266.376C445.904 268.166 444.462 269.608 442.673 270.702C440.883 271.762 438.927 272.293 436.806 272.293Z" fill="white"/>
</svg>
