<svg width="415" height="246" viewBox="0 0 415 246" fill="none" xmlns="http://www.w3.org/2000/svg">
<path d="M5.84943 104V2.18182H27.3764V86.2514H71.027V104H5.84943ZM85.283 104V2.18182H153.891V19.9304H106.81V44.1918H150.361V61.9403H106.81V86.2514H154.09V104H85.283ZM167.128 19.9304V2.18182H250.75V19.9304H219.578V104H198.3V19.9304H167.128ZM281.872 2.18182V12.9205C281.872 15.9697 281.276 19.0852 280.082 22.267C278.922 25.4157 277.365 28.3987 275.409 31.2159C273.454 34 271.316 36.3698 268.996 38.3253L259.649 32.8068C261.306 30.1884 262.765 27.2883 264.024 24.1065C265.317 20.9247 265.963 17.2292 265.963 13.0199V2.18182H281.872ZM351.611 31.4645C351.213 27.4541 349.507 24.3385 346.49 22.1179C343.474 19.8972 339.381 18.7869 334.211 18.7869C330.697 18.7869 327.731 19.2841 325.311 20.2784C322.892 21.2396 321.036 22.5819 319.743 24.3054C318.484 26.0289 317.854 27.9844 317.854 30.1719C317.788 31.9948 318.169 33.5857 318.998 34.9446C319.859 36.3035 321.036 37.4801 322.527 38.4744C324.019 39.4356 325.742 40.2808 327.698 41.0099C329.653 41.706 331.741 42.3026 333.962 42.7997L343.11 44.9872C347.551 45.9815 351.628 47.3073 355.34 48.9645C359.052 50.6217 362.267 52.66 364.985 55.0795C367.703 57.4991 369.807 60.3494 371.299 63.6307C372.823 66.9119 373.602 70.6738 373.635 74.9162C373.602 81.1473 372.011 86.5497 368.863 91.1236C365.747 95.6643 361.239 99.1941 355.34 101.713C349.473 104.199 342.397 105.442 334.111 105.442C325.891 105.442 318.732 104.182 312.634 101.663C306.569 99.1444 301.829 95.4157 298.415 90.4773C295.034 85.5057 293.261 79.3575 293.096 72.0327H313.926C314.158 75.4465 315.136 78.2969 316.86 80.5838C318.616 82.8376 320.953 84.5445 323.87 85.7045C326.819 86.8314 330.15 87.3949 333.863 87.3949C337.508 87.3949 340.674 86.8646 343.358 85.804C346.076 84.7434 348.181 83.2685 349.672 81.3793C351.164 79.4901 351.909 77.3191 351.909 74.8665C351.909 72.5795 351.23 70.6572 349.871 69.0994C348.545 67.5417 346.59 66.2159 344.005 65.1222C341.453 64.0284 338.32 63.0341 334.608 62.1392L323.522 59.3551C314.937 57.267 308.159 54.0024 303.188 49.5611C298.216 45.1198 295.747 39.1373 295.78 31.6136C295.747 25.4489 297.388 20.063 300.702 15.456C304.05 10.849 308.64 7.25284 314.473 4.66761C320.307 2.08238 326.935 0.789769 334.36 0.789769C341.917 0.789769 348.512 2.08238 354.147 4.66761C359.814 7.25284 364.222 10.849 367.371 15.456C370.52 20.063 372.144 25.3991 372.243 31.4645H351.611ZM24.2443 142.182L48.8537 219.54H49.7983L74.4574 142.182H98.321L63.2216 244H35.4801L0.330966 142.182H24.2443ZM198.399 193.091C198.399 204.194 196.295 213.64 192.085 221.429C187.909 229.218 182.208 235.167 174.983 239.277C167.791 243.354 159.704 245.392 150.722 245.392C141.673 245.392 133.553 243.337 126.361 239.227C119.169 235.117 113.484 229.168 109.308 221.379C105.132 213.59 103.044 204.161 103.044 193.091C103.044 181.988 105.132 172.542 109.308 164.753C113.484 156.964 119.169 151.031 126.361 146.955C133.553 142.845 141.673 140.79 150.722 140.79C159.704 140.79 167.791 142.845 174.983 146.955C182.208 151.031 187.909 156.964 192.085 164.753C196.295 172.542 198.399 181.988 198.399 193.091ZM176.574 193.091C176.574 185.899 175.497 179.833 173.342 174.895C171.221 169.956 168.222 166.211 164.344 163.659C160.466 161.107 155.925 159.831 150.722 159.831C145.518 159.831 140.977 161.107 137.099 163.659C133.222 166.211 130.205 169.956 128.051 174.895C125.93 179.833 124.869 185.899 124.869 193.091C124.869 200.283 125.93 206.348 128.051 211.287C130.205 216.225 133.222 219.971 137.099 222.523C140.977 225.075 145.518 226.351 150.722 226.351C155.925 226.351 160.466 225.075 164.344 222.523C168.222 219.971 171.221 216.225 173.342 211.287C175.497 206.348 176.574 200.283 176.574 193.091ZM205.819 159.93V142.182H289.441V159.93H258.27V244H236.991V159.93H205.819ZM303.213 244V142.182H371.821V159.93H324.74V184.192H368.291V201.94H324.74V226.251H372.02V244H303.213ZM413.843 142.182L411.904 213.474H393.708L391.719 142.182H413.843ZM402.806 245.293C399.525 245.293 396.708 244.133 394.354 241.812C392.001 239.459 390.841 236.642 390.874 233.361C390.841 230.113 392.001 227.329 394.354 225.009C396.708 222.688 399.525 221.528 402.806 221.528C405.955 221.528 408.722 222.688 411.109 225.009C413.495 227.329 414.705 230.113 414.738 233.361C414.705 235.548 414.125 237.554 412.998 239.376C411.904 241.166 410.462 242.608 408.673 243.702C406.883 244.762 404.927 245.293 402.806 245.293Z" fill="white"/>
</svg>
