<svg width="149" height="70" viewBox="0 0 149 70" fill="none" xmlns="http://www.w3.org/2000/svg">
<g clip-path="url(#clip0_3595_3903)">
<path d="M26.3364 69.9992H0V13.6777H25.2811C36.4174 13.6777 42.592 20.2092 42.592 28.9225C42.592 32.6772 40.8582 36.5825 37.7743 38.9078C42.7428 41.1579 45.9774 46.2669 45.9774 52.4222C45.9774 62.4076 38.9804 69.9923 26.3364 69.9923V69.9992ZM15.0494 26.4467V35.6865H22.8003C26.4872 35.6865 28.0703 33.5116 28.0703 31.029C28.0703 28.5463 26.7134 26.4467 22.8756 26.4467H15.0494ZM15.0494 45.6719V57.3876H24.4518C29.1942 57.3876 31.1473 54.6108 31.1473 51.4579C31.1473 48.305 29.4889 45.6719 24.5272 45.6719H15.0494Z" fill="#3D59A8"/>
<path d="M58.9984 69.9992L45.9775 13.6777H62.9115L70.5116 55.8829H73.7463L81.4217 13.6777H98.2804L85.3417 69.9992H59.0053H58.9984Z" fill="#3D59A8"/>
<path d="M128.736 44.0791H114.139L111.884 56.3214H95.4775L108.492 0H134.451L147.39 56.3214H130.983L128.729 44.0791H128.736ZM116.318 32.213H126.549L123.239 14.1163H119.628L116.318 32.213Z" fill="#D31F37"/>
<path d="M147.396 69.9998H95.1621L96.9165 62.4766H149L147.396 69.9998Z" fill="#D31F37"/>
</g>
<defs>
<clipPath id="clip0_3595_3903">
<rect width="149" height="70" fill="white"/>
</clipPath>
</defs>
</svg>
