<svg width="605" height="436" viewBox="0 0 605 436" fill="none" xmlns="http://www.w3.org/2000/svg">
<g clip-path="url(#clip0_3266_7720)">
<path d="M203 175.899V305.916C179.848 304.833 157.237 303.78 133.75 302.688C133.75 300.493 133.75 298.732 133.75 296.97C133.719 280.733 133.862 264.506 133.575 248.268C133.416 239.589 129.878 231.381 121.529 224.227C108.336 212.94 88.1472 212.635 74.0934 223.528C65.5527 230.132 60.9 237.876 60.4698 246.211C59.6731 261.612 59.8324 277.023 59.6093 292.434C59.5775 294.382 59.6093 296.321 59.6093 299.037C43.9621 298.338 29.0797 297.669 13.4643 296.961C13.2731 294.805 13.0022 293.064 12.9863 291.332C12.9544 261.484 13.1138 231.647 12.7951 201.8C12.7473 197.686 14.6116 196.2 21.1923 195.502C39.9786 193.504 39.9308 193.307 39.9308 181.311C39.9308 167.377 39.7714 153.432 40.0901 139.498C40.1379 137.244 41.3648 134.568 43.5637 132.836C59.8324 120.092 76.5791 107.574 92.9593 94.8894C95.8274 92.6653 98.1857 92.3898 102.313 93.6396C120.398 99.1111 138.61 104.455 156.935 109.631C161.3 110.871 162.464 112.504 162.432 115.309C162.257 134.823 162.336 154.338 162.352 173.852C162.352 179.451 163.659 180.13 172.598 179.186C182.461 178.143 192.308 177.05 203 175.899ZM188.102 256.495C188.102 247.973 187.974 239.451 188.165 230.929C188.245 227.494 186.078 226.176 180.549 226.5C172.63 226.973 164.678 227.356 156.743 227.543C151.66 227.671 149.748 229.088 149.764 232.139C149.86 248.524 149.86 264.919 149.764 281.304C149.748 284.315 151.374 285.88 156.584 285.929C164.28 285.998 171.976 286.185 179.641 286.549C185.743 286.844 188.325 285.496 188.181 281.56C187.878 273.205 188.086 264.84 188.086 256.485L188.102 256.495ZM48.8698 258.129C48.8698 253.868 48.9494 249.607 48.8698 245.345C48.5511 231.332 52.6621 232.06 27.4066 233.34C20.794 233.674 18.8182 235.229 18.9297 239.126C19.2324 249.616 18.8819 260.107 19.0731 270.597C19.328 285.033 15.1852 283.262 40.3451 283.794C47.2126 283.941 49.1566 282.209 48.9654 278.293C48.6467 271.581 48.8857 264.85 48.8857 258.129H48.8698ZM112.383 176.381C112.383 171.136 112.367 165.891 112.383 160.646C112.399 157.192 109.897 155.883 104.336 156.719C97.8989 157.693 91.4456 158.628 84.9285 159.386C80.4033 159.908 78.8258 161.462 78.8577 164.179C78.9692 174.177 78.9533 184.185 78.8736 194.183C78.8417 197.46 81.3752 198.602 86.3785 198.1C92.9274 197.45 99.6516 197.175 105.93 196.014C108.543 195.531 111.793 193.248 112.064 191.625C112.861 186.586 112.351 181.479 112.351 176.391L112.383 176.381ZM77.567 133.013C77.9654 133.131 78.3796 133.259 78.778 133.377C79.1285 135.315 79.0648 137.333 79.9252 139.183C81.6302 142.883 84.2912 146.298 91.3659 147.046C98.345 147.784 103.046 145.461 106.471 142.125C112.447 136.309 114.454 129.824 110.343 123.447C108.559 120.682 103.492 117.356 99.2692 116.962C95.0307 116.569 88.434 118.803 85.6456 121.135C81.6302 124.491 80.1324 128.998 77.5511 133.013H77.567ZM154.066 204.723C154.258 205.913 154.178 207.429 154.799 208.826C156.52 212.664 159.882 215.882 166.766 216.404C173.713 216.925 178.111 214.258 181.075 210.696C182.142 209.417 182.748 207.95 183.226 206.533C184.963 201.436 184.15 196.437 177.091 193.229C174.127 191.88 168.264 191.467 164.822 192.323C156.488 194.4 154.56 199.33 154.066 204.732V204.723ZM22.1165 215.616C22.1802 215.99 22.1165 217.161 22.5945 218.244C24.1242 221.688 26.4346 224.965 33.2385 225.054C39.5165 225.132 42.3528 222.259 44.2648 219.031C44.8066 218.116 45.2209 217.161 45.4918 216.197C47.3082 209.791 42.1775 203.542 34.8956 203.217C27.7731 202.902 22.0687 208.078 22.1165 215.607V215.616Z" fill="#ECF4F8"/>
<path d="M13.3527 302.619C27.9643 303.279 41.4604 303.78 54.8928 304.607C56.5978 304.715 58.7807 306.349 59.3862 307.55C60.2307 309.203 59.3384 311.191 60.1192 312.873C60.5653 313.828 62.8598 315.078 64.3098 315.068C65.6802 315.058 67.6082 313.72 68.2296 312.706C68.9307 311.555 68.5164 310.118 68.5164 308.809C68.5164 290.604 68.4527 272.398 68.5483 254.193C68.5961 245.739 70.5719 237.512 77.7104 230.083C82.1878 225.408 87.7966 221.324 97.4049 221.315C107.109 221.295 113.387 225.28 116.653 230.25C120.27 235.771 123.824 241.754 124.094 247.599C125.066 268.58 124.636 289.58 124.748 310.571C124.748 312.047 124.158 313.661 124.923 314.96C125.831 316.524 127.903 317.823 129.464 319.24C130.898 317.774 132.97 316.406 133.591 314.822C134.308 312.991 133.766 310.974 133.766 308.425C141.797 308.76 149.095 309.026 156.377 309.36C170.144 309.99 183.895 310.728 197.662 311.279C201.438 311.437 203.51 312.027 203.494 314.694C203.414 351.42 203.446 388.146 203.446 425.629C200.004 425.068 197.295 424.685 194.65 424.193C136.778 413.446 78.9214 402.631 21.0011 392.003C14.9143 390.891 12.7313 389.317 12.7951 385.243C13.1456 359.499 12.9703 333.746 13.0022 307.992C13.0022 306.388 13.2253 304.784 13.3846 302.629L13.3527 302.619ZM188.101 359.529C188.101 350.997 187.958 342.475 188.181 333.943C188.261 330.695 186.476 329.199 180.979 328.953C173.315 328.609 165.698 327.841 158.082 327.172C152.361 326.67 149.716 327.92 149.748 331.679C149.892 347.917 149.923 364.154 149.716 380.391C149.669 383.668 151.867 385.154 156.775 385.774C164.041 386.689 171.243 387.841 178.509 388.785C186.54 389.838 188.038 389.11 188.086 384.121C188.165 375.923 188.101 367.716 188.086 359.519L188.101 359.529ZM112.415 351.508C112.415 344.64 112.415 337.771 112.415 330.902C112.415 326.224 108.537 323.57 100.783 322.941C96.5922 322.596 92.306 322.508 88.195 321.937C80.9768 320.923 78.7301 322.695 78.8417 327.015C79.1126 338.135 78.9214 349.255 78.9214 360.385C78.9214 375.52 78.9532 375.431 103.269 378.246C109.977 379.023 112.622 377.813 112.478 373.591C112.239 366.23 112.415 358.869 112.415 351.508ZM48.8697 344.699C48.8697 340.113 48.9335 335.527 48.8697 330.951C48.6307 316.308 52.0565 319.595 27.8049 317.272C21.0967 316.633 18.8341 318.306 18.9456 322.389C19.2324 333.027 18.8819 343.675 19.089 354.313C19.3599 368.789 15.3604 365.413 38.6401 369.143C39.15 369.222 39.6917 369.242 40.2016 369.32C46.3681 370.245 49.0928 368.858 48.9494 364.843C48.7104 358.131 48.8857 351.42 48.8857 344.708L48.8697 344.699ZM183.449 409.264C184.708 408.585 187.432 407.798 187.528 406.883C187.655 405.869 185.743 404.078 184.15 403.763C174.844 401.982 165.427 400.417 155.931 399.099C154.321 398.872 152.138 400.201 150.226 400.811C151.278 401.962 151.963 403.852 153.461 404.147C163.005 405.987 172.725 407.473 183.449 409.254V409.264ZM82.9527 386.955C81.901 387.634 79.5109 388.52 79.5746 389.327C79.6702 390.488 81.184 392.299 82.7455 392.613C90.5213 394.178 98.4565 395.477 106.455 396.51C108.001 396.707 110.742 395.477 111.666 394.464C112.192 393.893 110.471 391.728 109.164 391.472C100.878 389.838 92.4016 388.549 82.9527 386.965V386.955ZM43.739 386.374C45.0137 385.813 47.834 385.184 48.1368 384.249C48.4555 383.284 46.7027 381.316 45.189 380.991C38.5126 379.574 31.645 378.413 24.7137 377.577C23.2 377.39 20.4753 378.679 19.5989 379.712C19.1049 380.283 20.8896 382.379 22.2439 382.664C28.9362 384.052 35.8357 385.066 43.739 386.384V386.374Z" fill="#ECF4F8"/>
<path d="M424.659 364.438V301.3H479.249C479.344 301.831 479.679 302.914 479.679 303.996C479.711 320.194 479.583 336.402 479.806 352.6C479.854 355.808 478.356 357.117 473.034 357.766C457.244 359.695 441.58 362.057 424.643 364.429L424.659 364.438Z" fill="#FF0000"/>
<path d="M316.705 141.2C316.546 139.793 316.259 138.366 316.243 136.939C316.211 120.899 316.371 104.848 316.1 88.8079C316.052 85.5014 317.438 83.8579 322.872 82.9427C336.91 80.5908 350.772 77.8157 364.715 75.2571C375.151 73.3479 380.394 75.6901 380.394 82.2145C380.394 97.6055 380.394 112.997 380.394 128.388V133.997C374.944 134.656 370.084 135.237 364.141 135.955C364.141 125.553 364.205 115.604 364.093 105.665C364.061 102.575 364.173 99.3966 363.121 96.405C360.651 89.3491 349.88 86.9971 340.559 91.3074C332.91 94.8501 330.329 99.8985 330.281 105.547C330.201 114.876 330.249 124.215 330.249 133.544C330.249 138.543 325.724 141.099 316.673 141.21L316.705 141.2Z" fill="#ECF4F8"/>
<path d="M404.008 137.707V170.782C400.725 170.309 398.001 169.925 395.372 169.551C395.133 168.774 394.654 168.223 394.878 167.839C398.893 160.911 390.719 157.073 384.568 152.921C383.15 151.966 378.465 151.513 376.856 152.212C357.162 160.754 335.938 162.87 312.881 158.835C308.053 157.989 303.066 157.398 298.11 156.886C293.888 156.444 290.828 155.951 290.876 152.458C290.924 149.063 293.075 148.059 298.062 147.469C328.257 143.896 358.357 139.99 388.6 136.555C393.444 136.004 398.813 137.274 404.008 137.707Z" fill="#ECF4F8"/>
<path d="M275.181 141.811C278.926 143.7 282.622 146.849 282.096 151.956C281.316 159.593 281.889 167.288 281.889 175.161C271.962 175.161 264.266 173.773 258.004 168.833C250.069 162.575 240.827 156.946 232.175 151.061C246.372 148 260.012 145.068 275.165 141.811H275.181Z" fill="#ECF4F8"/>
<path d="M346.916 166.304C358.532 163.745 369.303 161.384 381.35 158.736C390.512 166.609 383.198 176.233 385.843 185.218C378.322 185.749 373.207 184.608 368.841 181.36C361.942 176.233 354.421 171.421 346.916 166.304Z" fill="#ECF4F8"/>
<path d="M357.99 72.0191C357.99 66.1441 358.038 60.2691 357.974 54.3843C357.942 51.0778 356.811 47.8993 350.677 47.1809C344.51 46.4625 340.431 48.9325 338.344 52.0718C336.782 54.404 336.495 57.1398 336.336 59.7082C336.033 64.4515 336.495 69.2144 336.097 73.9479C335.985 75.3846 334.121 76.7623 333.053 78.1696C332.082 77.9826 331.094 77.7956 330.122 77.6087C330.122 67.7088 330.042 57.8089 330.265 47.9091C330.281 47.0923 332.082 45.8819 333.468 45.5571C343.554 43.1953 353.752 41.0107 364.683 38.5898C364.683 49.2081 364.842 59.1867 364.491 69.1554C364.444 70.4741 361.894 71.7731 360.492 73.072C359.647 72.7178 358.803 72.3635 357.958 72.0092L357.99 72.0191Z" fill="#ECF4F8"/>
<path d="M244.922 257.833C232.632 258.306 226.487 255.081 226.487 248.16C226.487 242.6 226.55 237.05 226.646 231.49C226.646 231.037 227.124 230.584 227.634 229.649C233.211 229.935 238.883 230.22 244.922 230.535V257.833Z" fill="#FF0000"/>
<path d="M227.841 196.318C232.287 196.623 237.067 196.722 241.608 197.401C243.138 197.627 245.145 199.3 245.177 200.333C245.48 208.314 245.337 216.305 245.337 224.06C244.428 224.483 244.046 224.817 243.632 224.817C232.191 225.021 226.476 221.593 226.487 214.534C226.503 208.816 226.63 203.099 226.742 197.381C226.742 197.116 227.267 196.85 227.825 196.309L227.841 196.318Z" fill="#FF0000"/>
<path d="M226.136 288.488C231.984 288.271 237.433 288.064 244.157 287.818C244.157 296.705 244.269 305.128 243.966 313.542C243.934 314.31 241.449 315.53 239.855 315.697C235.537 316.17 231.076 316.199 226.136 316.426V288.488Z" fill="#FF0000"/>
<path d="M226.168 349.963V322.025C231.586 321.642 237.21 321.248 244.158 320.756C244.158 329.642 244.237 338.076 244.014 346.509C243.998 347.257 242.054 348.448 240.732 348.625C236.143 349.245 231.442 349.511 226.168 349.963Z" fill="#FF0000"/>
<path d="M250.435 347.729V320.509C255.949 320.125 261.127 319.761 267.708 319.299C267.708 327.91 267.804 336.304 267.533 344.698C267.517 345.357 265.19 346.361 263.724 346.558C259.629 347.109 255.407 347.316 250.435 347.719V347.729Z" fill="#FF0000"/>
<path d="M251.774 230.644C257.749 230.968 262.992 231.254 268.648 231.559V257.913H251.774V230.634V230.644Z" fill="#FF0000"/>
<path d="M251.949 198.375C263.379 198.769 269.094 202.256 269.094 208.836C269.094 214.494 269.094 220.163 269.094 226.224C262.96 225.988 257.765 225.782 251.949 225.555V198.375Z" fill="#FF0000"/>
<path d="M250.483 287.799H267.294V314.143C261.812 314.487 256.427 314.832 250.483 315.215V287.799Z" fill="#FF0000"/>
<path d="M477.145 294.943H425.407C435 289.767 443.859 284.974 453.451 279.798C461.673 284.462 469.768 289.048 477.862 293.634L477.145 294.943Z" fill="#FF0000"/>
<path d="M285.443 313.306V287.051C290.287 286.893 295.146 286.736 300.707 286.559V312.273C295.72 312.617 290.86 312.942 285.443 313.316V313.306Z" fill="#FF0000"/>
<path d="M301.998 227.514C291.397 227.862 286.096 225.07 286.096 219.14C286.096 213.284 286.096 207.419 286.096 200.993C291.816 201.426 296.676 201.8 301.998 202.204V227.514Z" fill="#FF0000"/>
<path d="M301.329 317.184C301.329 325.509 301.488 333.175 301.138 340.821C301.09 341.756 298.604 343.144 296.835 343.459C293.346 344.079 289.569 344.098 285.411 344.403V318.384C290.255 318.02 295.13 317.646 301.329 317.184Z" fill="#FF0000"/>
<path d="M301.839 258.246H286.654V232.769H301.839V258.246Z" fill="#FF0000"/>
<path d="M307.894 233.33C312.881 233.468 317.486 233.586 322.617 233.734V258.591H307.894V233.33Z" fill="#FF0000"/>
<path d="M307.846 202.765C312.913 203.139 317.534 203.483 322.617 203.857V228.764C317.566 228.626 312.961 228.498 307.846 228.351V202.765Z" fill="#FF0000"/>
<path d="M307.065 316.976C311.877 316.651 316.291 316.346 321.358 316.002V341.116C316.912 341.529 312.339 341.962 307.065 342.464V316.976Z" fill="#FF0000"/>
<path d="M307.129 286.568C311.654 286.411 316.1 286.263 321.278 286.076V311.17C316.673 311.456 312.244 311.741 307.129 312.056V286.568Z" fill="#FF0000"/>
<path d="M477.91 194.793C462.326 192.49 458.311 184.195 447.715 179.579C457.132 177.493 465.099 175.732 474.404 173.675C481.113 179.717 475.6 186.97 477.91 194.793Z" fill="#ECF4F8"/>
<path d="M338.312 234.373C343.267 234.619 347.394 234.826 351.856 235.042V258.778H338.312V234.373Z" fill="#FF0000"/>
<path d="M337.595 340.782V315.206C342.024 314.861 346.151 314.546 351.569 314.123C351.569 321.838 352.318 329.179 350.995 336.373C350.708 337.967 343.14 339.05 337.611 340.792L337.595 340.782Z" fill="#FF0000"/>
<path d="M338.344 205.146C342.933 205.51 347.06 205.844 351.696 206.208V230.417C347.155 230.141 343.044 229.895 338.344 229.61V205.146Z" fill="#FF0000"/>
<path d="M351.107 309.449C346.645 309.793 342.534 310.108 337.722 310.482V285.979H351.107V309.449Z" fill="#FF0000"/>
<path d="M369.16 312.519V336.688C364.953 337.111 360.906 337.504 355.903 338.006C355.903 330.458 355.297 323.432 356.094 316.465C356.716 311.062 364.523 314.684 369.144 312.509L369.16 312.519Z" fill="#FF0000"/>
<path d="M356.349 285.387C360.827 285.22 364.683 285.072 369.096 284.915V308.454C365.033 308.749 360.97 309.035 356.349 309.369V285.387Z" fill="#FF0000"/>
<path d="M357.018 230.535V207.399C369.813 206.434 370.642 206.858 370.642 214.189C370.642 219.7 370.642 225.201 370.642 231.273C365.479 230.997 361.4 230.781 357.002 230.544L357.018 230.535Z" fill="#FF0000"/>
<path d="M369.989 259.054H357.13V235.741H369.989V259.054Z" fill="#FF0000"/>
<path d="M532.373 378.61C530.859 379.918 529.759 382.034 527.768 382.418C510.416 385.774 492.888 388.815 475.408 391.954C473.273 387.752 474.612 385.695 481.782 384.74C498.035 382.585 514.096 379.82 530.222 377.301C530.939 377.734 531.656 378.167 532.373 378.6V378.61Z" fill="#FF0000"/>
<path d="M499.357 364.301C497.955 365.855 497.031 368.444 495.055 368.798C478.898 371.711 462.534 374.21 446.09 376.867C443.572 372.695 445.197 370.904 451.874 370.008C467.059 367.961 482.053 365.393 497.126 363.041L499.373 364.31L499.357 364.301Z" fill="#FF0000"/>
<path d="M413.568 259.644C405.93 259.965 402.106 257.896 402.096 253.434C402.096 248.238 402.096 243.052 402.096 237.61H413.568V259.644Z" fill="#FF0000"/>
<path d="M413.823 233.507C409.712 233.212 406.35 232.966 402.558 232.691V210.44C406.414 210.677 409.919 210.893 413.823 211.129V233.507Z" fill="#FF0000"/>
<path d="M429.327 259.782H418.396V237.827C422.348 238.053 425.662 238.24 429.327 238.447V259.782Z" fill="#FF0000"/>
<path d="M429.821 234.048C425.359 233.841 422.013 233.694 418.269 233.526V212.408C429.056 211.306 429.805 211.69 429.821 218.175C429.821 223.203 429.821 228.232 429.821 234.048Z" fill="#FF0000"/>
<path d="M341.674 27.9521C344.383 29.9892 345.61 30.9142 347.936 32.6757C349.099 30.1958 349.832 28.6016 350.581 27.0172C359.297 26.3382 361.91 27.7356 364.491 34.9588C353.863 37.3402 343.076 39.7611 332.289 42.1918C331.556 41.8769 330.823 41.5521 330.074 41.2372C333.723 37.0549 337.372 32.8824 341.674 27.9521Z" fill="#ECF4F8"/>
<path d="M441.341 259.792V238.86C444.688 239.018 447.699 239.165 451.3 239.343V259.792H441.341Z" fill="#FF0000"/>
<path d="M451.906 235.219C447.699 234.973 444.64 234.796 441.341 234.599V214.002C448.352 213.753 451.874 215.668 451.906 219.749C451.922 224.748 451.906 229.747 451.906 235.209V235.219Z" fill="#FF0000"/>
<path d="M428.355 388.273C428.53 386.02 428.658 384.455 428.817 382.398C441.246 383.668 453.037 384.868 464.988 386.089V392.347C452.67 390.98 440.911 389.671 428.355 388.273Z" fill="#FF0000"/>
<path d="M464.653 260.067H455.586V239.795H464.653V260.067Z" fill="#FF0000"/>
<path d="M455.809 215.055C462.502 214.219 466.055 215.115 465.513 219.877C464.956 224.906 465.386 229.984 465.386 235.347H455.809V215.055Z" fill="#FF0000"/>
<path d="M485.144 236.39H476.317V216.364C479.376 216.581 482.133 216.768 485.144 216.984V236.39Z" fill="#FF0000"/>
<path d="M497.397 241.321V260.402H489.064V241.006C491.741 241.104 494.402 241.203 497.397 241.321Z" fill="#FF0000"/>
<path d="M485.59 260.235H476.078V240.78C482.34 239.825 486.212 240.209 485.702 245.188C485.192 250.05 485.59 254.941 485.59 260.225V260.235Z" fill="#FF0000"/>
<path d="M497.095 237.05C490.53 238.093 488.028 236.725 488.363 232.7C488.761 227.839 488.458 222.958 488.458 217.781H497.095V237.05Z" fill="#FF0000"/>
<path d="M528.007 242.334V260.776H519.896V242.61C522.318 242.531 524.74 242.442 528.007 242.334Z" fill="#FF0000"/>
<path d="M520.04 220.113C526.652 219.307 528.74 220.911 528.469 224.562C528.134 229.108 528.389 233.664 528.389 238.447H520.04V220.104V220.113Z" fill="#FF0000"/>
<path d="M535.002 190.591C541.455 189.095 546.538 187.914 552.641 186.507V201.071C545.024 198.572 541.344 194.065 535.002 190.601V190.591Z" fill="#ECF4F8"/>
<path d="M527.321 303.829V321.808C524.884 322.094 522.653 322.36 520.295 322.635C519.864 322.074 519.291 321.671 519.291 321.267C519.195 316.721 519.434 312.174 519.052 307.638C518.749 303.997 521.282 303.003 527.321 303.839V303.829Z" fill="#FF0000"/>
<path d="M519.594 281.698C521.872 281.57 524.135 281.442 527.592 281.255C527.592 286.904 527.975 292.247 527.306 297.541C527.146 298.732 523.338 299.756 519.594 301.675V281.708V281.698Z" fill="#FF0000"/>
<path d="M538.89 260.717C532.898 261.721 530.285 261.003 530.524 257.47C530.843 252.776 530.604 248.072 530.604 243.191C536.133 242.167 539.113 242.6 538.937 246.458C538.73 251.152 538.89 255.846 538.89 260.727V260.717Z" fill="#FF0000"/>
<path d="M530.795 281.274C533.313 281.166 535.352 281.077 537.95 280.959V299.056C535.83 299.243 533.6 299.44 530.795 299.686V281.264V281.274Z" fill="#FF0000"/>
<path d="M538.89 239.008C532.962 239.844 530.349 239.027 530.54 235.573C530.795 230.879 530.604 226.166 530.604 221.54C538.443 220.684 538.714 220.733 538.858 224.63C539.017 229.334 538.89 234.038 538.89 239.018V239.008Z" fill="#FF0000"/>
<path d="M530.668 303.387C533.09 303.21 535.352 303.052 538.077 302.855V320.972C535.639 321.14 533.361 321.297 530.668 321.474V303.387Z" fill="#FF0000"/>
<path d="M546.984 302.442C548.976 302.284 551.191 302.107 554.298 301.861C554.298 307.274 554.648 312.283 554.059 317.242C553.915 318.473 550.713 319.555 548.912 320.706C548.275 320.451 547.637 320.205 547 319.949V302.442H546.984Z" fill="#FF0000"/>
<path d="M549.836 221.423C551.398 222.761 554.154 224.05 554.314 225.448C554.887 230.132 554.537 234.865 554.537 239.776C549.438 240.465 546.474 240.081 546.602 236.529C546.761 231.825 546.649 227.121 546.649 222.417C547.717 222.082 548.785 221.748 549.836 221.413V221.423Z" fill="#FF0000"/>
<path d="M546.634 243.988C552.306 242.757 554.808 243.446 554.601 246.989C554.346 251.516 554.537 256.052 554.537 260.52C546.888 261.445 546.777 261.445 546.665 257.45C546.538 252.933 546.634 248.416 546.634 243.997V243.988Z" fill="#FF0000"/>
<path d="M546.634 298.239V281.077C548.976 280.959 551.159 280.841 553.677 280.713C553.948 281.825 554.266 282.612 554.282 283.39C554.346 287.149 554.059 290.918 554.394 294.667C554.696 298.023 552.625 299.204 546.634 298.23V298.239Z" fill="#FF0000"/>
<path d="M556.529 318.787C556.529 313.778 556.21 308.759 556.784 303.77C556.895 302.737 560.305 301.851 562.185 300.896C562.791 301.192 563.412 301.487 564.018 301.772C564.018 306.476 564.384 311.19 563.795 315.864C563.635 317.193 560.703 318.384 559.046 319.633C558.202 319.348 557.373 319.063 556.529 318.777V318.787Z" fill="#FF0000"/>
<path d="M563.46 297.442C559.11 298.515 556.322 298.446 556.433 295.11C556.561 291.351 556.051 287.562 556.672 283.832C556.895 282.455 559.556 281.235 561.086 279.936C561.883 280.201 562.663 280.477 563.46 280.742V297.442Z" fill="#FF0000"/>
<path d="M587.632 300.168C587.632 304.833 587.919 309.517 587.425 314.162C587.297 315.303 584.589 316.337 583.059 317.419L580.589 316.721C580.589 311.918 580.302 307.116 580.812 302.333C580.924 301.28 583.84 300.345 585.449 299.361C586.182 299.637 586.899 299.903 587.616 300.178L587.632 300.168Z" fill="#FF0000"/>
<path d="M580.573 295.967C580.573 291.558 580.255 287.13 580.78 282.751C580.924 281.55 583.569 280.468 585.083 279.326L587.616 280.143C587.616 284.847 587.887 289.57 587.409 294.255C587.297 295.288 584.541 296.213 583.011 297.187C582.199 296.784 581.386 296.37 580.589 295.967H580.573Z" fill="#FF0000"/>
<path d="M571.459 296.961C571.459 292.119 571.204 287.268 571.666 282.436C571.762 281.432 574.534 280.537 576.08 279.592C576.829 279.867 577.578 280.153 578.326 280.428C578.326 285.27 578.597 290.121 578.103 294.934C577.992 295.957 575.124 296.862 573.514 297.827C572.829 297.532 572.144 297.246 571.459 296.951V296.961Z" fill="#FF0000"/>
<path d="M562.09 241.026C560.433 239.973 557.453 238.979 557.325 237.857C556.8 233.005 557.102 228.114 557.102 223.243C565.5 223.332 566.28 225.418 562.09 241.026Z" fill="#FF0000"/>
<path d="M557.516 260.953V244.312C564.448 244.184 564.527 244.184 564.495 248.878C564.4 262.232 565.722 261.711 557.516 260.953Z" fill="#FF0000"/>
<path d="M577.928 241.153C571.267 240.701 569.451 234.353 572.654 224.158C579.553 224.867 580.748 228.567 577.928 241.153Z" fill="#FF0000"/>
<path d="M583.633 244.303C585.051 245.375 587.52 246.389 587.68 247.521C588.19 251.408 588.078 255.344 587.712 259.241C587.632 260.097 585.561 260.885 584.397 261.701C583.298 260.825 581.322 259.969 581.258 259.054C580.94 254.517 581.115 249.971 581.115 245.434C581.959 245.06 582.804 244.677 583.648 244.303H583.633Z" fill="#FF0000"/>
<path d="M572.208 244.863C576.669 244.771 578.842 248.763 578.725 256.839C578.682 259.805 576.51 261.222 572.208 261.09V244.863Z" fill="#FF0000"/>
<path d="M578.358 300.533C578.358 305.513 578.661 310.049 578.167 314.547C578.024 315.816 575.49 316.987 573.068 319.034C569.021 308.14 571.013 301.065 578.358 300.533Z" fill="#FF0000"/>
<path d="M585.672 242.128C584.158 241.163 581.418 240.238 581.322 239.215C580.844 234.541 581.115 229.827 581.115 225.133C588.922 225.3 589.337 226.451 585.672 242.138V242.128Z" fill="#FF0000"/>
<path d="M507.611 375.146C494.115 377.114 480.619 379.082 467.123 381.06C466.931 380.48 466.724 379.909 466.533 379.328C480.029 377.242 493.541 375.156 507.037 373.06C507.229 373.758 507.42 374.447 507.611 375.146Z" fill="#FF0000"/>
<path d="M435.637 376.986C426.809 377.439 428.244 374.3 428.833 371.278C437.517 370.314 436.322 373.542 435.637 376.986Z" fill="#FF0000"/>
<path d="M8.69999 308.09C5.13076 306.151 2.56538 304.754 0 303.366C2.31044 302.136 4.60494 300.906 6.91538 299.666C7.52087 299.873 8.11043 300.079 8.71593 300.276C8.71593 298.347 8.71593 296.419 8.71593 294.48C8.71593 263.649 8.8434 232.818 8.55659 201.996C8.50878 197.528 10.5961 195.688 17.9577 194.93C35.7241 193.11 35.6604 192.864 35.6604 181.931C35.6604 168.488 35.4692 155.036 35.8357 141.593C35.8994 139.202 37.4291 136.387 39.8192 134.518C57.7769 120.504 76.1807 106.717 94.2659 92.7632C97.5164 90.2538 100.48 89.8208 105.149 91.2182C127.09 97.7918 149.254 104.1 171.084 110.821C173.554 111.579 175.721 114.285 175.8 116.125C176.278 125.435 176.023 134.764 176.023 144.486C191.878 146.494 207.302 150.332 222.392 149.86C238.979 149.338 257.08 148.334 270.959 140.806C277.061 137.49 282.065 137.519 286.367 142.036C287.036 142.735 288.024 143.315 288.868 143.945C295.338 148.836 303.783 150.106 312.674 147.016C314.379 146.425 315.112 144.024 315.128 142.459C315.303 125.572 315.415 108.676 315.112 91.7889C315.048 87.8231 316.068 85.048 323.35 84.5953C328.305 84.2902 329.628 82.5582 329.548 79.5666C329.261 69.7258 329.437 59.885 329.452 50.0541C329.468 41.837 334.535 35.1256 345.084 30.0182C349.96 27.6564 350.485 18.3076 346.024 15.5128C339.634 11.5076 342.088 4.0286 350.724 2.2671C353.003 1.80458 358.07 2.40487 358.389 3.11341C359.568 5.72122 360.811 8.97853 359.281 11.2813C354.214 18.8981 353.752 18.78 354.74 25.7177C364.969 28.857 374.657 31.6911 384.138 34.7614C393.683 37.8515 398.415 42.8899 398.463 49.5522C398.527 57.2575 398.845 64.9727 398.351 72.6682C398.112 76.4274 400.104 78.5727 405.872 79.4289C412.899 80.472 415.002 83.0306 414.827 87.5771C414.269 102.161 414.827 116.765 414.461 131.359C414.349 135.433 415.847 138.001 422.874 138.454C432.195 139.054 434.49 142.282 433.964 147.822C433.119 156.65 433.964 165.526 433.629 174.383C433.486 178.152 435.812 179.677 441.533 178.801C452.973 177.05 465.418 177.02 474.771 171.578C478.101 169.64 480.842 170.24 483.28 172.385C487.184 175.82 494.227 178.349 491.024 183.741C490.673 184.332 492.952 186.231 494.354 186.389C509.778 188.15 524.979 192.362 541.025 188.435C544.435 187.599 547.701 186.556 551.095 185.719C553.82 185.05 558.409 183.613 559.174 184.145C562.584 186.556 566.631 189.42 567.189 192.362C567.746 195.235 568.384 196.357 572.957 196.84C580.796 197.666 588.476 199.034 596.316 199.811C602.737 200.451 605.207 202.242 604.968 206.375C604.49 214.563 604.825 222.77 604.825 230.967C604.825 273.765 604.681 316.573 605.016 359.37C605.048 364.428 602.451 366.603 594.579 367.794C579.92 370.018 565.595 373.039 551.015 375.48C546.363 376.257 544.817 377.546 544.817 380.558C544.785 392.288 547.765 389.739 529.441 393.242C520.072 395.033 510.272 396.096 501.253 398.389C483.025 403.024 464.78 403.172 446.233 399.796C434.346 397.631 423.097 398.527 411.258 400.712C347.793 412.461 284.168 423.887 220.511 435.223C215.747 436.07 209.915 436.188 205.215 435.322C142.705 423.877 80.3554 412.107 17.8302 400.682C10.4687 399.334 8.52472 397.228 8.58845 392.75C8.8912 366.19 8.73186 339.62 8.73186 313.05C8.73186 311.091 8.73186 309.133 8.73186 308.08L8.69999 308.09ZM207.541 180.189C196.865 181.35 187.002 182.442 177.139 183.476C168.216 184.42 166.909 183.741 166.893 178.142C166.861 158.628 166.798 139.113 166.973 119.599C167.005 116.804 165.842 115.161 161.476 113.921C143.152 108.745 124.955 103.401 106.854 97.9296C102.727 96.6798 100.385 96.9553 97.5005 99.1794C81.1043 111.864 64.3736 124.382 48.1049 137.126C45.8901 138.857 44.6791 141.534 44.6313 143.788C44.3126 157.722 44.4719 171.667 44.4719 185.601C44.4719 197.597 44.5357 197.794 25.7335 199.792C19.1527 200.49 17.2884 201.976 17.3362 206.09C17.639 235.927 17.4956 265.774 17.5275 295.622C17.5275 297.354 17.8143 299.095 18.0055 301.25C33.6208 301.949 48.5192 302.618 64.1505 303.327C64.1505 300.611 64.1186 298.662 64.1505 296.724C64.3736 281.313 64.2142 265.902 65.0109 250.501C65.4412 242.166 70.1098 234.431 78.6345 227.818C92.7043 216.934 112.893 217.23 126.07 228.517C134.42 235.671 137.957 243.869 138.116 252.558C138.403 268.786 138.26 285.023 138.292 301.26C138.292 303.022 138.292 304.783 138.292 306.978C161.762 308.07 184.373 309.123 207.541 310.206V180.189ZM17.8939 306.899C17.7346 309.054 17.5115 310.658 17.5115 312.262C17.4797 338.016 17.6549 363.759 17.3044 389.513C17.2566 393.587 19.4236 395.161 25.5104 396.273C83.4466 406.901 141.287 417.716 199.16 428.463C201.805 428.955 204.498 429.338 207.955 429.899C207.955 392.416 207.923 355.69 208.003 318.964C208.003 316.307 205.932 315.707 202.171 315.549C188.404 314.988 174.637 314.26 160.886 313.63C153.604 313.296 146.306 313.02 138.276 312.695C138.276 315.244 138.833 317.271 138.1 319.092C137.479 320.676 135.408 322.044 133.974 323.51C132.412 322.093 130.341 320.785 129.432 319.23C128.667 317.921 129.257 316.317 129.257 314.841C129.161 293.85 129.576 272.85 128.604 251.869C128.333 246.024 124.796 240.041 121.163 234.52C117.896 229.55 111.618 225.565 101.914 225.585C92.306 225.604 86.6972 229.688 82.2197 234.353C75.0972 241.783 73.1054 250.019 73.0576 258.463C72.962 276.668 73.0258 294.874 73.0258 313.079C73.0258 314.388 73.456 315.815 72.739 316.976C72.1175 317.98 70.2054 319.318 68.8192 319.338C67.3851 319.348 65.0747 318.108 64.6285 317.143C63.8478 315.461 64.7401 313.473 63.8955 311.82C63.2901 310.629 61.1071 308.985 59.4021 308.877C45.9697 308.051 32.4895 307.549 17.8621 306.889L17.8939 306.899ZM429.2 368.719C446.153 366.347 461.801 363.986 477.591 362.057C482.897 361.407 484.411 360.099 484.363 356.89C484.14 340.692 484.268 324.485 484.236 308.287C484.236 307.204 483.885 306.112 483.806 305.59H429.216V368.729L429.2 368.719ZM321.246 145.49C330.286 145.379 334.812 142.823 334.822 137.824C334.822 128.495 334.774 119.156 334.854 109.827C334.902 104.178 337.483 99.1302 345.132 95.5875C354.453 91.2772 365.208 93.6292 367.694 100.685C368.746 103.677 368.634 106.855 368.666 109.945C368.778 119.884 368.714 129.833 368.714 140.235C374.673 139.517 379.517 138.936 384.967 138.277V132.668C384.967 117.277 384.967 101.886 384.967 86.4946C384.967 79.9701 379.724 77.628 369.288 79.5371C355.329 82.0957 341.483 84.8807 327.445 87.2228C322.011 88.138 320.609 89.7716 320.673 93.0879C320.944 109.128 320.784 125.179 320.816 141.219C320.816 142.646 321.119 144.073 321.278 145.48L321.246 145.49ZM408.549 141.987C403.355 141.554 397.985 140.284 393.141 140.836C362.898 144.27 332.799 148.177 302.604 151.749C297.6 152.339 295.449 153.343 295.417 156.738C295.37 160.232 298.429 160.724 302.651 161.167C307.607 161.688 312.594 162.269 317.422 163.115C340.479 167.16 361.703 165.034 381.397 156.492C383.007 155.794 387.707 156.236 389.11 157.201C395.244 161.363 403.434 165.191 399.419 172.119C399.196 172.513 399.674 173.054 399.913 173.832C402.542 174.206 405.267 174.599 408.549 175.062V141.987ZM279.722 146.09C264.569 149.348 250.929 152.29 236.732 155.341C245.384 161.216 254.626 166.845 262.561 173.113C268.823 178.053 276.52 179.441 286.446 179.441C286.446 171.568 285.873 163.873 286.654 156.236C287.179 151.129 283.467 147.98 279.738 146.09H279.722ZM351.457 170.584C358.962 175.701 366.483 180.514 373.383 185.641C377.749 188.888 382.863 190.03 390.384 189.498C387.755 180.523 395.053 170.899 385.891 163.017C373.861 165.664 363.089 168.026 351.457 170.584ZM362.532 76.2995C363.376 76.6538 364.221 77.008 365.065 77.3623C366.451 76.0535 369.017 74.7643 369.065 73.4457C369.399 63.4769 369.256 53.4983 369.256 42.8801C358.309 45.2911 348.111 47.4758 338.041 49.8474C336.639 50.1721 334.854 51.3826 334.838 52.1994C334.615 62.0992 334.695 71.9991 334.695 81.8989C335.667 82.0859 336.655 82.2729 337.627 82.4598C338.694 81.0526 340.559 79.6749 340.67 78.2381C341.052 73.5047 340.606 68.7417 340.909 63.9985C341.068 61.43 341.371 58.6844 342.917 56.362C345.02 53.2228 349.083 50.7429 355.25 51.4711C361.368 52.1895 362.516 55.3681 362.547 58.6746C362.611 64.5496 362.563 70.4245 362.563 76.3093L362.532 76.2995ZM249.464 262.114V234.815C243.425 234.51 237.752 234.215 232.175 233.93C231.665 234.855 231.203 235.307 231.187 235.77C231.092 241.32 231.044 246.88 231.028 252.44C231.017 259.361 237.162 262.586 249.464 262.114ZM232.382 200.599C231.825 201.14 231.299 201.406 231.299 201.671C231.171 207.389 231.06 213.106 231.044 218.824C231.023 225.883 236.738 229.311 248.189 229.108C248.587 229.108 248.986 228.763 249.894 228.35C249.894 220.595 250.021 212.605 249.734 204.624C249.703 203.59 247.695 201.917 246.165 201.691C241.624 201.012 236.844 200.914 232.398 200.609L232.382 200.599ZM230.677 292.768V320.706C235.617 320.479 240.078 320.45 244.396 319.978C245.99 319.8 248.476 318.59 248.507 317.822C248.81 309.409 248.699 300.995 248.699 292.099C241.975 292.354 236.525 292.551 230.677 292.768ZM230.709 354.243C235.967 353.791 240.684 353.525 245.273 352.905C246.611 352.728 248.539 351.537 248.555 350.789C248.794 342.356 248.699 333.922 248.699 325.036C241.751 325.528 236.127 325.921 230.709 326.305V354.243ZM254.977 352.009C259.948 351.596 264.171 351.389 268.266 350.848C269.748 350.651 272.058 349.648 272.074 348.988C272.329 340.594 272.249 332.2 272.249 323.589C265.668 324.052 260.49 324.406 254.977 324.8V352.019V352.009ZM256.315 234.923V262.202H273.189V235.848C267.533 235.543 262.306 235.258 256.315 234.933V234.923ZM256.49 202.655V229.836C262.306 230.062 267.485 230.269 273.635 230.505C273.635 224.433 273.635 218.775 273.635 213.116C273.635 206.536 267.92 203.049 256.49 202.655ZM255.025 292.079V319.495C260.968 319.121 266.354 318.777 271.835 318.423V292.079H255.025ZM481.686 299.223L482.403 297.914C474.309 293.329 466.214 288.743 457.992 284.078C448.4 289.264 439.541 294.047 429.949 299.223H481.686ZM289.984 317.586C295.401 317.212 300.277 316.888 305.249 316.543V290.829C299.688 291.006 294.812 291.164 289.984 291.321V317.576V317.586ZM306.539 231.804V206.493C301.217 206.09 296.357 205.716 290.637 205.283C290.637 211.709 290.637 217.564 290.637 223.429C290.637 229.367 295.938 232.158 306.539 231.804ZM305.87 321.464C299.672 321.936 294.796 322.3 289.952 322.664V348.683C294.111 348.378 297.887 348.358 301.377 347.738C303.129 347.424 305.631 346.046 305.679 345.101C306.029 337.455 305.87 329.799 305.87 321.464ZM306.38 262.537V237.059H291.195V262.537H306.38ZM312.435 237.62V262.881H327.158V238.023C322.043 237.886 317.422 237.758 312.435 237.62ZM312.387 207.044V232.631C317.502 232.768 322.107 232.896 327.158 233.044V208.137C322.075 207.763 317.454 207.418 312.387 207.044ZM311.606 321.257V346.745C316.88 346.253 321.47 345.82 325.899 345.396V320.283C320.816 320.627 316.402 320.932 311.606 321.257ZM311.67 290.849V316.336C316.785 316.012 321.199 315.736 325.819 315.451V290.357C320.641 290.534 316.211 290.691 311.67 290.849ZM482.451 199.083C480.141 191.26 485.654 184.007 478.946 177.965C469.64 180.022 461.673 181.783 452.256 183.869C462.868 188.485 466.868 196.78 482.451 199.083ZM342.853 238.653V263.058H356.397V239.322C351.935 239.106 347.809 238.899 342.853 238.653ZM342.136 345.062C347.681 343.33 355.234 342.237 355.521 340.643C356.843 333.45 356.094 326.118 356.094 318.393C350.677 318.816 346.566 319.131 342.12 319.476V345.052L342.136 345.062ZM342.885 209.436V233.9C347.601 234.185 351.696 234.431 356.238 234.707V210.499C351.585 210.125 347.458 209.8 342.885 209.436ZM355.648 313.729V290.258H342.263V314.762C347.076 314.388 351.202 314.073 355.648 313.729ZM373.701 316.799C369.08 318.974 361.273 315.352 360.651 320.755C359.839 327.722 360.46 334.749 360.46 342.297C365.463 341.795 369.495 341.401 373.717 340.978V316.809L373.701 316.799ZM360.89 289.678V313.66C365.511 313.325 369.574 313.04 373.638 312.745V289.205C369.208 289.373 365.368 289.51 360.89 289.678ZM361.56 234.815C365.957 235.051 370.036 235.268 375.199 235.543C375.199 229.472 375.199 223.971 375.199 218.46C375.199 211.128 374.355 210.705 361.576 211.67V234.805L361.56 234.815ZM374.53 263.334V240.021H361.671V263.334H374.53ZM536.914 382.9C536.197 382.467 535.48 382.034 534.763 381.601C518.622 384.12 502.576 386.885 486.323 389.04C479.137 389.995 477.814 392.052 479.95 396.254C497.429 393.114 514.957 390.074 532.309 386.718C534.285 386.334 535.4 384.218 536.914 382.91V382.9ZM503.898 368.581L501.652 367.312C486.578 369.664 471.584 372.232 456.399 374.279C449.723 375.185 448.097 376.966 450.615 381.138C467.059 378.491 483.423 375.991 499.58 373.069C501.556 372.714 502.464 370.126 503.883 368.571L503.898 368.581ZM418.11 263.924V241.891H406.637C406.637 247.333 406.637 252.529 406.637 257.715C406.637 262.176 410.461 264.246 418.11 263.924ZM418.364 237.787V215.409C414.461 215.173 410.939 214.956 407.099 214.72V236.97C410.891 237.246 414.253 237.492 418.364 237.787ZM433.868 264.072V242.737C430.203 242.53 426.873 242.343 422.938 242.117V264.072H433.868ZM434.362 238.328C434.362 232.522 434.362 227.484 434.362 222.455C434.362 215.97 433.613 215.586 422.81 216.688V237.807C426.555 237.974 429.885 238.132 434.362 238.328ZM346.215 32.2324C341.913 37.1528 338.264 41.3351 334.615 45.5174C335.348 45.8324 336.081 46.1571 336.83 46.472C347.617 44.0512 358.405 41.6303 369.033 39.239C366.451 32.006 363.838 30.6185 355.122 31.2975C354.373 32.8818 353.64 34.4761 352.477 36.9559C350.151 35.2043 348.924 34.2792 346.215 32.2324ZM445.883 264.072H455.841V243.623C452.24 243.446 449.245 243.308 445.883 243.141V264.072ZM456.447 239.499C456.447 234.028 456.463 229.039 456.447 224.04C456.426 219.959 452.904 218.043 445.883 218.292V238.889C449.181 239.086 452.24 239.263 456.447 239.509V239.499ZM432.896 392.563C445.452 393.961 457.212 395.27 469.529 396.637V390.379C457.578 389.158 445.771 387.958 433.358 386.688C433.199 388.745 433.072 390.31 432.896 392.563ZM469.194 264.347V244.075H460.128V264.347H469.194ZM460.351 219.336V239.627H469.927C469.927 234.264 469.481 229.186 470.055 224.158C470.596 219.395 467.043 218.499 460.351 219.336ZM489.685 240.67V221.264C486.674 221.058 483.917 220.861 480.858 220.644V240.67H489.685ZM501.939 245.601C498.927 245.492 496.266 245.384 493.605 245.286V264.682H501.939V245.601ZM490.131 264.515C490.131 259.22 489.733 254.33 490.243 249.478C490.769 244.499 486.881 244.115 480.619 245.069V264.525H490.131V264.515ZM501.636 241.33V222.062H493C493 227.238 493.302 232.119 492.904 236.98C492.569 241.005 495.071 242.373 501.636 241.33ZM532.548 246.624C529.281 246.732 526.859 246.821 524.438 246.9V265.066H532.548V246.624ZM524.581 224.394V242.737H532.93C532.93 237.954 532.675 233.388 533.01 228.852C533.281 225.201 531.193 223.597 524.581 224.404V224.394ZM539.543 194.871C545.885 198.335 549.565 202.842 557.182 205.342V190.778C551.079 192.195 545.996 193.366 539.543 194.862V194.871ZM531.863 308.11C525.824 307.283 523.29 308.277 523.593 311.908C523.975 316.445 523.736 320.991 523.832 325.538C523.832 325.941 524.406 326.345 524.836 326.905C527.194 326.63 529.409 326.364 531.863 326.079V308.1V308.11ZM524.135 285.987V305.954C527.863 304.035 531.687 303.012 531.847 301.821C532.516 296.527 532.134 291.183 532.134 285.535C528.692 285.732 526.413 285.85 524.135 285.978V285.987ZM543.431 265.007C543.431 260.126 543.271 255.432 543.479 250.738C543.654 246.88 540.69 246.447 535.145 247.47C535.145 252.352 535.384 257.055 535.065 261.75C534.826 265.292 537.424 266.001 543.431 264.997V265.007ZM535.336 285.554V303.976C538.141 303.73 540.372 303.534 542.491 303.347V285.249C539.893 285.358 537.87 285.446 535.336 285.564V285.554ZM543.431 243.288C543.431 238.309 543.558 233.605 543.399 228.901C543.272 225.004 542.985 224.955 535.145 225.811C535.145 230.446 535.336 235.15 535.081 239.844C534.89 243.298 537.503 244.125 543.431 243.278V243.288ZM535.209 307.677V325.764C537.902 325.577 540.18 325.429 542.618 325.262V307.145C539.893 307.342 537.631 307.509 535.209 307.677ZM551.525 306.722V324.229C552.163 324.485 552.8 324.731 553.437 324.987C555.238 323.835 558.441 322.753 558.584 321.523C559.174 316.563 558.823 311.554 558.823 306.141C555.7 306.387 553.501 306.565 551.509 306.722H551.525ZM554.378 225.703C553.31 226.037 552.242 226.372 551.191 226.706C551.191 231.41 551.318 236.114 551.143 240.818C551.016 244.371 553.979 244.764 559.078 244.066C559.078 239.155 559.429 234.422 558.855 229.737C558.68 228.33 555.939 227.051 554.378 225.712V225.703ZM551.175 248.268C551.175 252.686 551.079 257.203 551.207 261.72C551.318 265.715 551.43 265.715 559.078 264.79C559.078 260.323 558.887 255.786 559.142 251.259C559.349 247.717 556.863 247.028 551.175 248.258V248.268ZM551.175 302.52C557.166 303.484 559.237 302.313 558.935 298.958C558.584 295.208 558.871 291.439 558.823 287.68C558.823 286.903 558.473 286.115 558.218 285.003C555.7 285.131 553.517 285.249 551.175 285.367V302.53V302.52ZM561.07 323.077C561.914 323.363 562.743 323.648 563.587 323.934C565.245 322.684 568.176 321.483 568.336 320.165C568.925 315.49 568.559 310.776 568.559 306.073C567.953 305.777 567.332 305.482 566.726 305.197C564.846 306.151 561.436 307.037 561.325 308.07C560.751 313.05 561.07 318.078 561.07 323.087V323.077ZM568.001 301.723V285.023C567.204 284.757 566.424 284.482 565.627 284.216C564.081 285.515 561.436 286.735 561.213 288.113C560.592 291.833 561.086 295.631 560.974 299.391C560.863 302.727 563.651 302.796 568.001 301.723ZM592.173 304.449C591.44 304.173 590.723 303.908 590.006 303.632C588.381 304.616 585.481 305.551 585.369 306.604C584.859 311.387 585.146 316.189 585.146 320.991L587.616 321.69C589.146 320.607 591.854 319.574 591.982 318.433C592.476 313.788 592.189 309.103 592.189 304.439L592.173 304.449ZM585.114 300.247C585.927 300.65 586.74 301.064 587.536 301.467C589.066 300.493 591.839 299.568 591.934 298.534C592.412 293.84 592.141 289.127 592.141 284.423L589.608 283.606C588.11 284.747 585.449 285.83 585.306 287.031C584.78 291.42 585.098 295.838 585.098 300.247H585.114ZM576 301.241C576.685 301.536 577.37 301.821 578.056 302.116C579.665 301.152 582.549 300.237 582.645 299.223C583.139 294.401 582.868 289.55 582.868 284.718C582.119 284.442 581.37 284.157 580.621 283.881C579.075 284.826 576.303 285.732 576.207 286.725C575.745 291.547 576 296.409 576 301.25V301.241ZM566.631 245.305C570.821 229.688 570.041 227.612 561.643 227.523C561.643 232.394 561.341 237.285 561.867 242.137C561.994 243.259 564.958 244.253 566.631 245.305ZM562.058 265.233C570.264 266.001 568.941 266.512 569.037 253.158C569.069 248.464 568.989 248.464 562.058 248.592V265.233ZM582.469 245.433C585.306 232.857 584.11 229.157 577.195 228.438C573.992 238.633 575.809 244.981 582.469 245.433ZM588.174 248.582C587.329 248.956 586.485 249.34 585.64 249.714C585.64 254.261 585.465 258.797 585.784 263.334C585.847 264.239 587.823 265.095 588.923 265.981C590.086 265.164 592.157 264.377 592.237 263.521C592.603 259.624 592.715 255.688 592.205 251.8C592.062 250.669 589.576 249.655 588.158 248.582H588.174ZM576.749 249.153V265.381C581.051 265.512 583.224 264.095 583.266 261.13C583.383 253.054 581.211 249.061 576.749 249.153ZM582.915 304.813C575.57 305.354 573.562 312.43 577.625 323.314C580.047 321.267 582.581 320.096 582.724 318.826C583.234 314.329 582.915 309.792 582.915 304.813ZM590.213 246.418C593.862 230.741 593.464 229.59 585.656 229.413C585.656 234.117 585.385 238.82 585.863 243.495C585.959 244.518 588.7 245.443 590.213 246.408V246.418ZM512.152 379.426C511.961 378.727 511.77 378.038 511.579 377.34C498.083 379.426 484.57 381.512 471.074 383.608C471.266 384.189 471.473 384.76 471.664 385.34C485.16 383.372 498.656 381.404 512.152 379.426ZM440.178 381.276C440.863 377.832 442.043 374.604 433.374 375.568C432.785 378.589 431.351 381.729 440.178 381.276ZM348.844 12.8361C354.947 11.2222 356.716 8.91948 354.421 5.0422C348.398 6.67578 346.486 8.949 348.844 12.8361Z" fill="#1D4ED8"/>
<path d="M192.643 260.775C192.643 269.13 192.436 277.495 192.738 285.85C192.882 289.786 190.3 291.124 184.198 290.839C176.533 290.475 168.821 290.278 161.141 290.219C155.915 290.17 154.289 288.605 154.321 285.594C154.417 269.209 154.417 252.814 154.321 236.429C154.305 233.378 156.201 231.952 161.3 231.833C169.251 231.637 177.187 231.263 185.106 230.79C190.635 230.456 192.802 231.784 192.722 235.219C192.515 243.741 192.659 252.263 192.659 260.785L192.643 260.775Z" fill="#1D4ED8"/>
<path d="M53.4109 262.409C53.4109 269.131 53.1878 275.852 53.4906 282.573C53.6818 286.49 51.7378 288.222 44.8702 288.074C19.7104 287.543 23.8532 289.304 23.5983 274.878C23.4071 264.387 23.7576 253.887 23.4549 243.407C23.3433 239.51 25.3191 237.955 31.9318 237.62C57.1713 236.341 53.0603 235.613 53.3949 249.626C53.4905 253.887 53.3949 258.148 53.3949 262.409H53.4109Z" fill="#1D4ED8"/>
<path d="M116.94 180.661C116.94 185.739 117.45 190.856 116.653 195.895C116.398 197.519 113.132 199.802 110.519 200.284C104.225 201.455 97.5005 201.721 90.9675 202.37C85.9642 202.872 83.4307 201.73 83.4626 198.454C83.5422 188.455 83.5422 178.447 83.4466 168.449C83.4148 165.743 84.9922 164.188 89.5175 163.656C96.0186 162.899 102.488 161.964 108.925 160.99C114.486 160.143 116.988 161.462 116.972 164.916C116.94 170.161 116.972 175.406 116.972 180.651L116.94 180.661Z" fill="#1D4ED8"/>
<path d="M82.1082 137.303C84.6895 133.288 86.1873 128.791 90.2027 125.425C92.9911 123.083 99.5878 120.849 103.826 121.253C108.065 121.646 113.116 124.972 114.9 127.738C119.011 134.115 117.004 140.59 111.028 146.416C107.603 149.761 102.902 152.074 95.923 151.336C88.8483 150.588 86.1873 147.183 84.4823 143.473C83.6378 141.623 83.6856 139.606 83.3351 137.667C82.9367 137.549 82.5224 137.421 82.1241 137.303H82.1082Z" fill="#1D4ED8"/>
<path d="M158.608 209.003C159.101 203.6 161.03 198.66 169.363 196.593C172.805 195.737 178.669 196.15 181.632 197.499C188.691 200.707 189.504 205.706 187.767 210.803C187.289 212.23 186.683 213.687 185.616 214.966C182.652 218.528 178.238 221.195 171.307 220.674C164.423 220.152 161.061 216.944 159.341 213.096C158.719 211.699 158.799 210.183 158.608 208.993V209.003Z" fill="#1D4ED8"/>
<path d="M26.6576 219.896C26.6098 212.378 32.3142 207.192 39.4368 207.507C46.7186 207.832 51.8334 214.08 50.0329 220.487C49.762 221.451 49.3477 222.406 48.806 223.321C46.8939 226.549 44.0576 229.422 37.7796 229.344C30.9758 229.255 28.6653 225.968 27.1357 222.534C26.6576 221.451 26.7214 220.27 26.6576 219.906V219.896Z" fill="#1D4ED8"/>
<path d="M192.659 363.809C192.659 372.006 192.722 380.214 192.643 388.411C192.595 393.4 191.097 394.128 183.066 393.075C175.8 392.121 168.614 390.979 161.332 390.064C156.441 389.444 154.242 387.958 154.274 384.681C154.481 368.444 154.449 352.207 154.305 335.969C154.274 332.21 156.919 330.96 162.639 331.462C170.255 332.131 177.872 332.899 185.536 333.243C191.017 333.489 192.818 334.985 192.738 338.233C192.531 346.755 192.659 355.287 192.675 363.819L192.659 363.809Z" fill="#1D4ED8"/>
<path d="M116.956 355.788C116.956 363.149 116.781 370.51 117.02 377.871C117.163 382.093 114.518 383.293 107.81 382.526C83.4784 379.711 83.4625 379.8 83.4625 364.665C83.4625 353.545 83.6537 342.415 83.3828 331.294C83.2713 326.974 85.518 325.203 92.7361 326.217C96.8471 326.797 101.133 326.886 105.324 327.22C113.068 327.85 116.945 330.504 116.956 335.182C116.956 342.05 116.956 348.919 116.956 355.788Z" fill="#1D4ED8"/>
<path d="M53.4109 348.978C53.4109 355.69 53.2356 362.401 53.4746 369.113C53.6181 373.128 50.8933 374.515 44.7268 373.59C44.217 373.512 43.6752 373.492 43.1653 373.413C19.8857 369.683 23.8851 373.069 23.6142 358.583C23.4071 347.945 23.7736 337.297 23.4708 326.659C23.3593 322.566 25.6219 320.893 32.3302 321.542C56.5818 323.874 53.156 320.578 53.395 335.221C53.4746 339.807 53.395 344.393 53.395 348.969L53.4109 348.978Z" fill="#1D4ED8"/>
<path d="M187.99 413.544C177.266 411.763 167.547 410.277 158.002 408.436C156.504 408.151 155.819 406.252 154.767 405.1C156.68 404.49 158.863 403.162 160.472 403.388C169.969 404.707 179.402 406.271 188.691 408.053C190.284 408.358 192.197 410.149 192.069 411.172C191.958 412.077 189.249 412.875 187.99 413.554V413.544Z" fill="#1D4ED8"/>
<path d="M87.4939 391.235C96.9428 392.82 105.404 394.109 113.705 395.743C115.028 395.998 116.733 398.163 116.207 398.734C115.283 399.748 112.526 400.978 110.997 400.781C102.998 399.758 95.0626 398.449 87.2867 396.884C85.7252 396.569 84.2115 394.758 84.1159 393.597C84.0521 392.79 86.4582 391.905 87.4939 391.226V391.235Z" fill="#1D4ED8"/>
<path d="M48.2802 390.664C40.3929 389.345 33.4934 388.332 26.7852 386.944C25.4149 386.659 23.6462 384.572 24.1401 383.992C25.0165 382.959 27.7412 381.679 29.255 381.856C36.1863 382.693 43.0539 383.854 49.7302 385.271C51.244 385.596 52.9967 387.564 52.678 388.528C52.3753 389.473 49.5549 390.093 48.2802 390.654V390.664Z" fill="#1D4ED8"/>
</g>
<defs>
<clipPath id="clip0_3266_7720">
<rect width="605" height="435.161" fill="white" transform="translate(0 0.751953)"/>
</clipPath>
</defs>
</svg>
